<?xml version="1.0" standalone="no"?>
<!DOCTYPE svg PUBLIC "-//W3C//DTD SVG 20010904//EN"
 "http://www.w3.org/TR/2001/REC-SVG-20010904/DTD/svg10.dtd">
<svg version="1.0" xmlns="http://www.w3.org/2000/svg"
 width="32.000000pt" height="32.000000pt" viewBox="0 0 32.000000 32.000000"
 preserveAspectRatio="xMidYMid meet">

<g transform="translate(0.000000,32.000000) scale(0.100000,-0.100000)"
fill="#000000" stroke="none">
<path d="M70 290 c-19 -19 -19 -40 3 -67 25 -34 75 5 62 47 -11 34 -41 44 -65
20z m50 -36 c0 -22 -22 -28 -36 -9 -18 24 1 52 22 34 8 -6 14 -17 14 -25z"/>
<path d="M190 290 c-23 -23 -25 -39 -7 -64 17 -24 48 -17 64 13 23 47 -22 86
-57 51z m39 -41 c-5 -10 -14 -19 -20 -19 -16 0 -22 29 -9 45 19 22 43 0 29
-26z"/>
<path d="M7 214 c-15 -15 -6 -44 19 -60 31 -21 47 -9 42 32 -2 23 -9 30 -28
32 -14 2 -29 0 -33 -4z m43 -35 c0 -18 -2 -19 -15 -9 -8 7 -15 16 -15 21 0 5
7 9 15 9 9 0 15 -9 15 -21z"/>
<path d="M257 214 c-11 -11 -8 -62 3 -69 6 -4 22 1 36 10 33 22 29 59 -6 63
-14 2 -29 0 -33 -4z m43 -23 c0 -5 -7 -14 -15 -21 -13 -10 -15 -9 -15 9 0 12
6 21 15 21 8 0 15 -4 15 -9z"/>
<path d="M106 159 c-40 -34 -55 -84 -36 -119 10 -18 17 -21 43 -16 40 8 54 8
94 0 26 -5 33 -2 43 16 19 35 4 85 -36 119 -19 17 -43 31 -54 31 -11 0 -35
-14 -54 -31z m104 -25 c39 -45 40 -91 0 -86 -32 4 -68 4 -100 0 -21 -2 -26 2
-28 24 -4 31 50 98 78 98 10 0 32 -16 50 -36z"/>
</g>
</svg>
