<?xml version="1.0" standalone="no"?>
<!DOCTYPE svg PUBLIC "-//W3C//DTD SVG 20010904//EN"
 "http://www.w3.org/TR/2001/REC-SVG-20010904/DTD/svg10.dtd">
<svg version="1.0" xmlns="http://www.w3.org/2000/svg"
 width="981.000000pt" height="884.000000pt" viewBox="0 0 981.000000 884.000000"
 preserveAspectRatio="xMidYMid meet">

<g transform="translate(0.000000,884.000000) scale(0.100000,-0.100000)"
fill="#000000" stroke="none">
<path d="M3310 8823 c-217 -32 -356 -70 -502 -134 -638 -281 -1064 -944 -1115
-1739 l-8 -115 -120 -7 c-692 -38 -1278 -522 -1480 -1222 -53 -184 -69 -312
-69 -546 -1 -230 11 -335 60 -538 172 -708 657 -1322 1274 -1615 58 -28 106
-51 108 -52 1 -1 -11 -57 -28 -124 -78 -312 -104 -556 -97 -909 9 -434 67
-718 207 -1007 258 -532 768 -825 1395 -802 247 9 448 52 875 184 688 213 877
252 1165 240 223 -9 397 -45 785 -165 431 -132 502 -152 641 -187 230 -57 332
-70 549 -70 221 0 326 15 496 70 460 150 804 520 949 1021 68 233 95 458 95
784 0 316 -33 586 -105 864 -14 54 -24 100 -23 101 2 1 50 24 108 52 565 268
1017 801 1223 1440 148 458 154 912 19 1328 -49 150 -165 379 -252 495 -293
391 -732 631 -1205 658 l-120 7 -11 140 c-46 547 -236 990 -573 1338 -307 317
-707 496 -1147 514 -510 21 -991 -177 -1407 -579 l-87 -84 -85 82 c-327 320
-711 516 -1112 569 -97 13 -339 18 -403 8z m412 -1070 c351 -123 650 -485 772
-934 40 -146 57 -280 57 -434 0 -227 -39 -410 -122 -578 -56 -112 -92 -162
-179 -247 -84 -83 -196 -148 -305 -175 -78 -20 -234 -20 -319 -1 -409 95 -759
524 -877 1076 -31 144 -34 469 -5 600 70 323 234 560 462 670 99 48 163 60
304 57 109 -3 136 -7 212 -34z m2818 8 c293 -100 501 -402 551 -797 16 -133 6
-380 -21 -508 -116 -547 -465 -975 -872 -1071 -81 -19 -235 -19 -318 1 -301
71 -530 363 -595 762 -23 139 -16 424 14 561 116 534 453 951 856 1062 99 27
292 22 385 -10z m-4647 -1996 c397 -115 747 -512 866 -982 108 -425 -26 -828
-324 -973 -100 -49 -174 -63 -305 -58 -95 5 -132 11 -212 38 -484 161 -868
719 -868 1259 0 250 66 434 206 575 85 86 213 150 339 170 67 10 212 -4 298
-29z m6417 9 c213 -63 362 -226 432 -469 20 -70 23 -102 23 -255 0 -157 -3
-186 -27 -282 -117 -464 -442 -844 -838 -979 -89 -31 -104 -33 -235 -34 -122
0 -149 3 -208 24 -460 158 -575 806 -245 1383 190 334 496 570 815 628 67 12
217 4 283 -16z m-3160 -919 c191 -41 441 -145 658 -273 242 -144 447 -306 678
-536 301 -302 497 -573 674 -931 142 -289 226 -549 271 -846 30 -193 32 -539
5 -703 -44 -270 -123 -408 -274 -479 -62 -29 -77 -32 -187 -35 -179 -5 -275
16 -780 173 -450 140 -648 189 -905 225 -476 68 -880 17 -1570 -197 -582 -180
-704 -208 -888 -201 -95 3 -115 7 -174 35 -206 97 -292 335 -292 808 1 456 94
832 315 1265 242 476 639 936 1094 1267 303 221 665 388 950 438 100 18 320
13 425 -10z"/>
</g>
</svg>
